<svg width="32" height="32" viewBox="0 0 32 32" fill="none" xmlns="http://www.w3.org/2000/svg">
<path d="M22.5834 17.25H9.41669C8.16669 17.25 7.66669 17.7833 7.66669 19.1083V22.475C7.66669 23.8 8.16669 24.3333 9.41669 24.3333H22.5834C23.8334 24.3333 24.3334 23.8 24.3334 22.475V19.1083C24.3334 17.7833 23.8334 17.25 22.5834 17.25Z" stroke="#FAFAFA" stroke-width="1.5" stroke-linecap="round" stroke-linejoin="round"/>
<path d="M22.5834 7.66666H9.41669C8.16669 7.66666 7.66669 8.19999 7.66669 9.52499V12.8917C7.66669 14.2167 8.16669 14.75 9.41669 14.75H22.5834C23.8334 14.75 24.3334 14.2167 24.3334 12.8917V9.52499C24.3334 8.19999 23.8334 7.66666 22.5834 7.66666Z" stroke="#FAFAFA" stroke-width="1.5" stroke-linecap="round" stroke-linejoin="round"/>
</svg>
