<svg width="30" height="30" viewBox="0 0 30 30" fill="none" xmlns="http://www.w3.org/2000/svg">
<path d="M20.7625 25C22.4375 25.0125 24.05 24.3875 25.2875 23.2625C29.375 19.6875 27.1875 12.5125 21.8 11.8375C19.875 0.162497 3.0375 4.5875 7.025 15.7" stroke="#939393" stroke-width="1.5" stroke-miterlimit="10" stroke-linecap="round" stroke-linejoin="round"/>
<path d="M9.1 16.2125C8.4375 15.875 7.7 15.7 6.9625 15.7125C1.1375 16.125 1.15 24.6 6.9625 25.0125" stroke="#939393" stroke-width="1.5" stroke-miterlimit="10" stroke-linecap="round" stroke-linejoin="round"/>
<path d="M19.775 12.3625C20.425 12.0375 21.125 11.8625 21.85 11.85" stroke="#939393" stroke-width="1.5" stroke-miterlimit="10" stroke-linecap="round" stroke-linejoin="round"/>
<path d="M13.4344 26.8732C12.9219 26.8732 12.4969 26.4482 12.4969 25.9357V20.6982L11.5969 21.5982C11.2344 21.9607 10.6344 21.9607 10.2719 21.5982C9.90938 21.2357 9.90938 20.6357 10.2719 20.2732L12.7719 17.7732C13.0344 17.5107 13.4469 17.4232 13.7969 17.5732C14.1469 17.7107 14.3719 18.0607 14.3719 18.4357V25.9357C14.3719 26.4482 13.9469 26.8732 13.4344 26.8732Z" fill="#939393"/>
<path d="M15.9344 21.8732C15.6969 21.8732 15.4594 21.7857 15.2719 21.5982L12.7719 19.0982C12.4094 18.7357 12.4094 18.1357 12.7719 17.7732C13.1344 17.4107 13.7344 17.4107 14.0969 17.7732L16.5969 20.2732C16.9594 20.6357 16.9594 21.2357 16.5969 21.5982C16.4094 21.7857 16.1719 21.8732 15.9344 21.8732Z" fill="#939393"/>
</svg>
