<svg width="36" height="36" viewBox="0 0 36 36" fill="none" xmlns="http://www.w3.org/2000/svg">
<path d="M22.5 24.25H20.99C20.58 24.25 20.24 23.91 20.24 23.5C20.24 23.09 20.58 22.75 20.99 22.75H22.5C25.12 22.75 27.25 20.62 27.25 18C27.25 15.38 25.12 13.25 22.5 13.25H21C20.59 13.25 20.25 12.91 20.25 12.5C20.25 12.09 20.58 11.75 21 11.75H22.5C25.95 11.75 28.75 14.55 28.75 18C28.75 21.45 25.95 24.25 22.5 24.25Z" fill="#FAFAFA"/>
<path d="M15 24.25H13.5C10.05 24.25 7.25 21.45 7.25 18C7.25 14.55 10.05 11.75 13.5 11.75H15C15.41 11.75 15.75 12.09 15.75 12.5C15.75 12.91 15.41 13.25 15 13.25H13.5C10.88 13.25 8.75 15.38 8.75 18C8.75 20.62 10.88 22.75 13.5 22.75H15C15.41 22.75 15.75 23.09 15.75 23.5C15.75 23.91 15.41 24.25 15 24.25Z" fill="#FAFAFA"/>
<path d="M22 18.75H14C13.59 18.75 13.25 18.41 13.25 18C13.25 17.59 13.59 17.25 14 17.25H22C22.41 17.25 22.75 17.59 22.75 18C22.75 18.41 22.41 18.75 22 18.75Z" fill="#FAFAFA"/>
</svg>
