<svg width="32" height="32" viewBox="0 0 32 32" fill="none" xmlns="http://www.w3.org/2000/svg">
<path fill-rule="evenodd" clip-rule="evenodd" d="M9.80431 8.5C9.08423 8.5 8.5 9.09405 8.5 9.82534V10.6054C8.5 11.1471 8.70599 11.668 9.07446 12.0598L13.1126 16.3536L13.1144 16.3509C13.8939 17.149 14.3325 18.2279 14.3325 19.3528V23.1626C14.3325 23.4172 14.5989 23.5798 14.82 23.4597L17.1196 22.2066C17.4668 22.017 17.6834 21.6486 17.6834 21.2487V19.3428C17.6834 18.2242 18.1158 17.1499 18.8883 16.3536L22.9264 12.0598C23.294 11.668 23.5 11.1471 23.5 10.6054V9.82534C23.5 9.09405 22.9167 8.5 22.1966 8.5H9.80431Z" stroke="#FAFAFA" stroke-width="1.5" stroke-linecap="round" stroke-linejoin="round"/>
</svg>
