<svg width="30" height="30" viewBox="0 0 30 30" fill="none" xmlns="http://www.w3.org/2000/svg">
<path d="M21.25 28.4375H8.75C3.2375 28.4375 1.5625 26.7625 1.5625 21.25V8.75C1.5625 3.2375 3.2375 1.5625 8.75 1.5625H10.625C12.8125 1.5625 13.5 2.275 14.375 3.4375L16.25 5.9375C16.6625 6.4875 16.725 6.5625 17.5 6.5625H21.25C26.7625 6.5625 28.4375 8.2375 28.4375 13.75V21.25C28.4375 26.7625 26.7625 28.4375 21.25 28.4375ZM8.75 3.4375C4.2875 3.4375 3.4375 4.2875 3.4375 8.75V21.25C3.4375 25.7125 4.2875 26.5625 8.75 26.5625H21.25C25.7125 26.5625 26.5625 25.7125 26.5625 21.25V13.75C26.5625 9.2875 25.7125 8.4375 21.25 8.4375H17.5C15.9 8.4375 15.375 7.8875 14.75 7.0625L12.875 4.5625C12.225 3.7 12.0375 3.4375 10.625 3.4375H8.75Z" fill="#FAFAFA"/>
</svg>
