<svg width="135" height="36" viewBox="0 0 135 36" fill="none" xmlns="http://www.w3.org/2000/svg">
<path d="M37.8 9.152C39.576 9.152 41.128 9.504 42.456 10.208C43.784 10.912 44.808 11.904 45.528 13.184C46.264 14.448 46.632 15.912 46.632 17.576C46.632 19.224 46.264 20.688 45.528 21.968C44.808 23.248 43.776 24.24 42.432 24.944C41.104 25.648 39.56 26 37.8 26H31.488V9.152H37.8ZM37.536 22.448C39.088 22.448 40.296 22.024 41.16 21.176C42.024 20.328 42.456 19.128 42.456 17.576C42.456 16.024 42.024 14.816 41.16 13.952C40.296 13.088 39.088 12.656 37.536 12.656H35.592V22.448H37.536ZM53.0295 14.84C53.5095 14.104 54.1095 13.528 54.8295 13.112C55.5495 12.68 56.3495 12.464 57.2295 12.464V16.808H56.1015C55.0775 16.808 54.3095 17.032 53.7975 17.48C53.2855 17.912 53.0295 18.68 53.0295 19.784V26H48.9255V12.608H53.0295V14.84ZM65.2871 26.192C63.9751 26.192 62.7911 25.912 61.7351 25.352C60.6951 24.792 59.8711 23.992 59.2631 22.952C58.6711 21.912 58.3751 20.696 58.3751 19.304C58.3751 17.928 58.6791 16.72 59.2871 15.68C59.8951 14.624 60.7271 13.816 61.7831 13.256C62.8391 12.696 64.0231 12.416 65.3351 12.416C66.6471 12.416 67.8311 12.696 68.8871 13.256C69.9431 13.816 70.7751 14.624 71.3831 15.68C71.9911 16.72 72.2951 17.928 72.2951 19.304C72.2951 20.68 71.9831 21.896 71.3591 22.952C70.7511 23.992 69.9111 24.792 68.8391 25.352C67.7831 25.912 66.5991 26.192 65.2871 26.192ZM65.2871 22.64C66.0711 22.64 66.7351 22.352 67.2791 21.776C67.8391 21.2 68.1191 20.376 68.1191 19.304C68.1191 18.232 67.8471 17.408 67.3031 16.832C66.7751 16.256 66.1191 15.968 65.3351 15.968C64.5351 15.968 63.8711 16.256 63.3431 16.832C62.8151 17.392 62.5511 18.216 62.5511 19.304C62.5511 20.376 62.8071 21.2 63.3191 21.776C63.8471 22.352 64.5031 22.64 65.2871 22.64ZM78.5764 14.504C78.9764 13.88 79.5284 13.376 80.2324 12.992C80.9364 12.608 81.7604 12.416 82.7044 12.416C83.8084 12.416 84.8084 12.696 85.7044 13.256C86.6004 13.816 87.3044 14.616 87.8164 15.656C88.3444 16.696 88.6084 17.904 88.6084 19.28C88.6084 20.656 88.3444 21.872 87.8164 22.928C87.3044 23.968 86.6004 24.776 85.7044 25.352C84.8084 25.912 83.8084 26.192 82.7044 26.192C81.7764 26.192 80.9524 26 80.2324 25.616C79.5284 25.232 78.9764 24.736 78.5764 24.128V32.384H74.4724V12.608H78.5764V14.504ZM84.4324 19.28C84.4324 18.256 84.1444 17.456 83.5684 16.88C83.0084 16.288 82.3124 15.992 81.4804 15.992C80.6644 15.992 79.9684 16.288 79.3924 16.88C78.8324 17.472 78.5524 18.28 78.5524 19.304C78.5524 20.328 78.8324 21.136 79.3924 21.728C79.9684 22.32 80.6644 22.616 81.4804 22.616C82.2964 22.616 82.9924 22.32 83.5684 21.728C84.1444 21.12 84.4324 20.304 84.4324 19.28ZM94.8654 14.504C95.2654 13.88 95.8174 13.376 96.5214 12.992C97.2254 12.608 98.0494 12.416 98.9934 12.416C100.097 12.416 101.097 12.696 101.993 13.256C102.889 13.816 103.593 14.616 104.105 15.656C104.633 16.696 104.897 17.904 104.897 19.28C104.897 20.656 104.633 21.872 104.105 22.928C103.593 23.968 102.889 24.776 101.993 25.352C101.097 25.912 100.097 26.192 98.9934 26.192C98.0654 26.192 97.2414 26 96.5214 25.616C95.8174 25.232 95.2654 24.736 94.8654 24.128V32.384H90.7614V12.608H94.8654V14.504ZM100.721 19.28C100.721 18.256 100.433 17.456 99.8574 16.88C99.2974 16.288 98.6014 15.992 97.7694 15.992C96.9534 15.992 96.2574 16.288 95.6814 16.88C95.1214 17.472 94.8414 18.28 94.8414 19.304C94.8414 20.328 95.1214 21.136 95.6814 21.728C96.2574 22.32 96.9534 22.616 97.7694 22.616C98.5854 22.616 99.2814 22.32 99.8574 21.728C100.433 21.12 100.721 20.304 100.721 19.28ZM119.674 19.088C119.674 19.472 119.651 19.872 119.603 20.288H110.315C110.379 21.12 110.643 21.76 111.107 22.208C111.587 22.64 112.171 22.856 112.859 22.856C113.883 22.856 114.595 22.424 114.995 21.56H119.363C119.139 22.44 118.731 23.232 118.139 23.936C117.563 24.64 116.835 25.192 115.955 25.592C115.075 25.992 114.091 26.192 113.003 26.192C111.691 26.192 110.523 25.912 109.499 25.352C108.475 24.792 107.675 23.992 107.099 22.952C106.523 21.912 106.235 20.696 106.235 19.304C106.235 17.912 106.515 16.696 107.075 15.656C107.651 14.616 108.451 13.816 109.475 13.256C110.499 12.696 111.675 12.416 113.003 12.416C114.299 12.416 115.451 12.688 116.459 13.232C117.467 13.776 118.251 14.552 118.811 15.56C119.387 16.568 119.674 17.744 119.674 19.088ZM115.475 18.008C115.475 17.304 115.235 16.744 114.755 16.328C114.275 15.912 113.675 15.704 112.955 15.704C112.267 15.704 111.683 15.904 111.203 16.304C110.739 16.704 110.451 17.272 110.339 18.008H115.475ZM129.76 26L127.192 22.28L125.032 26H120.592L125.008 19.16L120.472 12.608H125.08L127.648 16.304L129.808 12.608H134.248L129.76 19.352L134.368 26H129.76Z" fill="#57ACDC"/>
<path d="M11.9998 19.3C11.8698 19.3 11.7398 19.27 11.6198 19.2L2.78985 14.09C2.42985 13.88 2.30983 13.42 2.51983 13.06C2.72983 12.7 3.17983 12.58 3.54983 12.79L11.9998 17.68L20.3998 12.82C20.7598 12.61 21.2198 12.74 21.4298 13.09C21.6398 13.45 21.5098 13.91 21.1598 14.12L12.3899 19.2C12.2599 19.26 12.1298 19.3 11.9998 19.3Z" fill="#57ACDC"/>
<path d="M12 28.36C11.59 28.36 11.25 28.02 11.25 27.61V18.54C11.25 18.13 11.59 17.79 12 17.79C12.41 17.79 12.75 18.13 12.75 18.54V27.61C12.75 28.02 12.41 28.36 12 28.36Z" fill="#57ACDC"/>
<path d="M12.0001 28.75C11.1201 28.75 10.2501 28.56 9.56012 28.18L4.22012 25.21C2.77012 24.41 1.64014 22.48 1.64014 20.82V15.17C1.64014 13.51 2.77012 11.59 4.22012 10.78L9.56012 7.82C10.9301 7.06 13.0701 7.06 14.4401 7.82L19.7801 10.79C21.2301 11.59 22.3601 13.52 22.3601 15.18V20.83C22.3601 22.49 21.2301 24.41 19.7801 25.22L14.4401 28.18C13.7501 28.56 12.8801 28.75 12.0001 28.75ZM12.0001 8.74999C11.3701 8.74999 10.7501 8.88 10.2901 9.13L4.95013 12.1C3.99013 12.64 3.14014 14.07 3.14014 15.18V20.83C3.14014 21.93 3.99013 23.37 4.95013 23.91L10.2901 26.88C11.2001 27.39 12.8001 27.39 13.7101 26.88L19.0501 23.91C20.0101 23.37 20.8601 21.94 20.8601 20.83V15.18C20.8601 14.08 20.0101 12.64 19.0501 12.1L13.7101 9.13C13.2501 8.88 12.6301 8.74999 12.0001 8.74999Z" fill="#57ACDC"/>
<path d="M17.0002 19.99C16.5902 19.99 16.2502 19.65 16.2502 19.24V16.0201L7.13018 10.7601C6.77018 10.5501 6.65016 10.09 6.86016 9.74005C7.07016 9.38005 7.52018 9.26003 7.88018 9.47003L17.3702 14.9501C17.6002 15.0801 17.7502 15.33 17.7502 15.6V19.2601C17.7502 19.6501 17.4102 19.99 17.0002 19.99Z" fill="#57ACDC"/>
</svg>
