<svg width="30" height="30" viewBox="0 0 30 30" fill="none" xmlns="http://www.w3.org/2000/svg">
<path fill-rule="evenodd" clip-rule="evenodd" d="M7.68742 0H17.7174L26.2182 8.86058V26.0945C26.2182 28.2534 24.4715 30 22.3201 30H7.68742C5.52851 30 3.78189 28.2534 3.78189 26.0945V3.90553C3.78185 1.74662 5.52847 0 7.68742 0V0Z" fill="#E2574C"/>
<path opacity="0.302" fill-rule="evenodd" clip-rule="evenodd" d="M17.7099 0V8.79311H26.2182L17.7099 0Z" fill="white"/>
<path d="M8.12219 22.3838V16.904H10.4535C11.0308 16.904 11.488 17.0615 11.8329 17.3838C12.1777 17.6986 12.3501 18.1259 12.3501 18.6582C12.3501 19.1904 12.1777 19.6177 11.8329 19.9325C11.488 20.2549 11.0308 20.4123 10.4535 20.4123H9.52399V22.3838H8.12219ZM9.52399 19.2204H10.2961C10.506 19.2204 10.6709 19.1754 10.7834 19.0705C10.8958 18.973 10.9558 18.8381 10.9558 18.6582C10.9558 18.4783 10.8958 18.3434 10.7834 18.2459C10.671 18.141 10.506 18.096 10.2961 18.096H9.52399V19.2204ZM12.9273 22.3838V16.904H14.8688C15.2511 16.904 15.611 16.9565 15.9483 17.069C16.2856 17.1814 16.593 17.3388 16.8628 17.5562C17.1327 17.7661 17.3501 18.051 17.5075 18.4108C17.6574 18.7706 17.7399 19.1829 17.7399 19.6477C17.7399 20.105 17.6574 20.5173 17.5075 20.877C17.3501 21.2369 17.1327 21.5217 16.8628 21.7316C16.5929 21.949 16.2856 22.1064 15.9483 22.2189C15.611 22.3313 15.2511 22.3838 14.8688 22.3838H12.9273ZM14.2991 21.1919H14.7039C14.9213 21.1919 15.1237 21.1694 15.3111 21.1169C15.491 21.0645 15.6634 20.982 15.8283 20.8696C15.9858 20.7572 16.1132 20.5997 16.2031 20.3898C16.2931 20.1799 16.3381 19.9325 16.3381 19.6477C16.3381 19.3553 16.2931 19.1079 16.2031 18.8981C16.1132 18.6882 15.9858 18.5308 15.8283 18.4183C15.6634 18.3059 15.491 18.2234 15.3111 18.1709C15.1237 18.1185 14.9213 18.096 14.7039 18.096H14.2991V21.1919ZM18.4445 22.3838V16.904H22.3426V18.096H19.8463V18.973H21.8403V20.1574H19.8463V22.3838H18.4445Z" fill="white"/>
</svg>
