<svg width="32" height="32" viewBox="0 0 32 32" fill="none" xmlns="http://www.w3.org/2000/svg">
<path d="M18.5 24.3333H9.33335C8.41669 24.3333 7.66669 23.5833 7.66669 22.6667V13.5C7.66669 13 8.00002 12.6667 8.50002 12.6667C9.00002 12.6667 9.33335 13 9.33335 13.5V22.6667H18.5C19 22.6667 19.3334 23 19.3334 23.5C19.3334 24 19 24.3333 18.5 24.3333Z" fill="#FAFAFA"/>
<path d="M22.6667 21H12.6667C11.75 21 11 20.25 11 19.3333V9.33332C11 8.41666 11.75 7.66666 12.6667 7.66666H22.6667C23.5833 7.66666 24.3333 8.41666 24.3333 9.33332V19.3333C24.3333 20.25 23.5833 21 22.6667 21ZM13.25 8.91666C12.6977 8.91666 12.25 9.36437 12.25 9.91666V18.75C12.25 19.3023 12.6977 19.75 13.25 19.75H22.0833C22.6356 19.75 23.0833 19.3023 23.0833 18.75V9.91666C23.0833 9.36437 22.6356 8.91666 22.0833 8.91666H13.25Z" fill="#FAFAFA"/>
<path d="M16.8333 16.8333C16.5833 16.8333 16.4166 16.75 16.25 16.5833L14.5833 14.9167C14.25 14.5833 14.25 14.0833 14.5833 13.75C14.9166 13.4167 15.4166 13.4167 15.75 13.75L16.8333 14.8333L19.5833 12.0833C19.9166 11.75 20.4166 11.75 20.75 12.0833C21.0833 12.4167 21.0833 12.9167 20.75 13.25L17.4166 16.5833C17.25 16.75 17.0833 16.8333 16.8333 16.8333Z" fill="#FAFAFA"/>
</svg>
