<svg width="32" height="32" viewBox="0 0 32 32" fill="none" xmlns="http://www.w3.org/2000/svg">
<path d="M15.183 22.25H12.2497C11.733 22.25 11.2747 22.2333 10.8663 22.175C8.67467 21.9333 8.08301 20.9 8.08301 18.0833V13.9167C8.08301 11.1 8.67467 10.0667 10.8663 9.825C11.2747 9.76667 11.733 9.75 12.2497 9.75H15.133" stroke="#FAFAFA" stroke-width="1.5" stroke-linecap="round" stroke-linejoin="round"/>
<path d="M18.5166 9.75H19.7499C20.2666 9.75 20.7249 9.76667 21.1333 9.825C23.3249 10.0667 23.9166 11.1 23.9166 13.9167V18.0833C23.9166 20.9 23.3249 21.9333 21.1333 22.175C20.7249 22.2333 20.2666 22.25 19.7499 22.25H18.5166" stroke="#FAFAFA" stroke-width="1.5" stroke-linecap="round" stroke-linejoin="round"/>
<path d="M18.5 7.66663V24.3333" stroke="#FAFAFA" stroke-width="1.5" stroke-linecap="round" stroke-linejoin="round"/>
<path d="M18.1254 15.795C18.1254 16.7025 17.3921 17.4358 16.4846 17.4358C15.5771 17.4358 14.8438 16.7025 14.8438 15.795C14.8438 14.8875 15.5771 14.1542 16.4846 14.1542C17.3921 14.1542 18.1254 14.8875 18.1254 15.795Z" stroke="#FAFAFA" stroke-linecap="round" stroke-linejoin="round"/>
<path d="M12.3094 14.6033C13.359 12.9533 14.8669 12 16.4848 12C17.1867 12 17.8679 12.1794 18.5 12.5173V19.0681C17.8679 19.406 17.1867 19.5854 16.4848 19.5854C14.8669 19.5854 13.359 18.6321 12.3094 16.9821C11.8969 16.3358 11.8969 15.2496 12.3094 14.6033Z" stroke="#FAFAFA" stroke-linecap="round" stroke-linejoin="round"/>
</svg>
