<svg width="36" height="36" viewBox="0 0 36 36" fill="none" xmlns="http://www.w3.org/2000/svg">
<circle cx="18" cy="18" r="18" fill="#57ACDC" fill-opacity="0.11"/>
<path d="M18.13 17.0765C18.0482 17.0683 17.95 17.0683 17.86 17.0765C15.9128 17.011 14.3664 15.4156 14.3664 13.4519C14.3664 11.4474 15.9864 9.81921 17.9991 9.81921C20.0037 9.81921 21.6318 11.4474 21.6318 13.4519C21.6237 15.4156 20.0773 17.011 18.13 17.0765Z" stroke="#FAFAFA" stroke-width="1.5" stroke-linecap="round" stroke-linejoin="round"/>
<path d="M14.0391 20.0956C12.0591 21.421 12.0591 23.581 14.0391 24.8983C16.2891 26.4038 19.9791 26.4038 22.2291 24.8983C24.2091 23.5729 24.2091 21.4129 22.2291 20.0956C19.9873 18.5983 16.2973 18.5983 14.0391 20.0956Z" stroke="#FAFAFA" stroke-width="1.5" stroke-linecap="round" stroke-linejoin="round"/>
</svg>
